<svg id="visual" viewBox="0 0 960 540" width="960" height="540" xmlns="http://www.w3.org/2000/svg" xmlns:xlink="http://www.w3.org/1999/xlink" version="1.1"><rect x="0" y="0" width="960" height="540" fill="#000814"></rect><path d="M0 374L32 360.3C64 346.7 128 319.3 192 314.7C256 310 320 328 384 333.8C448 339.7 512 333.3 576 340.7C640 348 704 369 768 372.2C832 375.3 896 360.7 928 353.3L960 346L960 541L928 541C896 541 832 541 768 541C704 541 640 541 576 541C512 541 448 541 384 541C320 541 256 541 192 541C128 541 64 541 32 541L0 541Z" fill="#ffd60a"></path><path d="M0 353L32 352C64 351 128 349 192 362.5C256 376 320 405 384 411.7C448 418.3 512 402.7 576 400.3C640 398 704 409 768 411.7C832 414.3 896 408.7 928 405.8L960 403L960 541L928 541C896 541 832 541 768 541C704 541 640 541 576 541C512 541 448 541 384 541C320 541 256 541 192 541C128 541 64 541 32 541L0 541Z" fill="#ff9a34"></path><path d="M0 446L32 443.8C64 441.7 128 437.3 192 432.8C256 428.3 320 423.7 384 412.5C448 401.3 512 383.7 576 380C640 376.3 704 386.7 768 398C832 409.3 896 421.7 928 427.8L960 434L960 541L928 541C896 541 832 541 768 541C704 541 640 541 576 541C512 541 448 541 384 541C320 541 256 541 192 541C128 541 64 541 32 541L0 541Z" fill="#f56557"></path><path d="M0 469L32 463.8C64 458.7 128 448.3 192 445.2C256 442 320 446 384 438.2C448 430.3 512 410.7 576 409.7C640 408.7 704 426.3 768 436.5C832 446.7 896 449.3 928 450.7L960 452L960 541L928 541C896 541 832 541 768 541C704 541 640 541 576 541C512 541 448 541 384 541C320 541 256 541 192 541C128 541 64 541 32 541L0 541Z" fill="#c6446d"></path><path d="M0 465L32 465.2C64 465.3 128 465.7 192 463.8C256 462 320 458 384 457.2C448 456.3 512 458.7 576 456.8C640 455 704 449 768 441.8C832 434.7 896 426.3 928 422.2L960 418L960 541L928 541C896 541 832 541 768 541C704 541 640 541 576 541C512 541 448 541 384 541C320 541 256 541 192 541C128 541 64 541 32 541L0 541Z" fill="#863771"></path><path d="M0 490L32 487.3C64 484.7 128 479.3 192 481.5C256 483.7 320 493.3 384 493.8C448 494.3 512 485.7 576 478.3C640 471 704 465 768 462.3C832 459.7 896 460.3 928 460.7L960 461L960 541L928 541C896 541 832 541 768 541C704 541 640 541 576 541C512 541 448 541 384 541C320 541 256 541 192 541C128 541 64 541 32 541L0 541Z" fill="#412d60"></path><path d="M0 531L32 530.2C64 529.3 128 527.7 192 519C256 510.3 320 494.7 384 491.5C448 488.3 512 497.7 576 498.7C640 499.7 704 492.3 768 490.3C832 488.3 896 491.7 928 493.3L960 495L960 541L928 541C896 541 832 541 768 541C704 541 640 541 576 541C512 541 448 541 384 541C320 541 256 541 192 541C128 541 64 541 32 541L0 541Z" fill="#001d3d"></path></svg>